<?xml version="1.0" standalone="no"?>
<!DOCTYPE svg PUBLIC "-//W3C//DTD SVG 20010904//EN"
 "http://www.w3.org/TR/2001/REC-SVG-20010904/DTD/svg10.dtd">
<svg version="1.0" xmlns="http://www.w3.org/2000/svg"
 width="341.000000pt" height="147.000000pt" viewBox="0 0 341.000000 147.000000"
 preserveAspectRatio="xMidYMid meet">
<metadata>
Created by potrace 1.16, written by Peter Selinger 2001-2019
</metadata>
<g transform="translate(0.000000,147.000000) scale(0.100000,-0.100000)"
fill="#000000" stroke="none">
<path d="M825 925 c-5 -2 -22 -6 -37 -9 -37 -8 -58 -52 -58 -121 0 -76 27
-105 99 -105 76 0 81 4 81 66 l0 54 -45 0 c-25 0 -45 -4 -45 -10 0 -5 14 -10
30 -10 28 0 30 -3 30 -35 l0 -35 -50 0 c-58 0 -70 14 -70 85 0 66 33 98 96 93
30 -2 44 1 44 9 0 7 -9 13 -19 13 -11 0 -25 2 -33 4 -7 3 -17 3 -23 1z"/>
<path d="M1276 920 c-15 -5 -36 -16 -47 -26 -40 -36 -33 -171 11 -194 20 -11
109 -14 134 -4 12 5 16 20 16 60 l0 54 -45 0 c-49 0 -62 -17 -17 -22 22 -2 28
-8 30 -35 l3 -33 -49 0 c-63 0 -76 15 -76 86 0 69 16 86 88 92 31 2 56 8 56
13 0 5 -8 9 -17 9 -10 0 -27 2 -38 5 -11 2 -33 0 -49 -5z"/>
<path d="M1703 923 c-27 -5 -53 -39 -53 -69 0 -28 27 -51 72 -59 45 -8 62 -27
53 -55 -6 -20 -13 -21 -66 -18 -49 2 -59 0 -57 -12 2 -11 20 -16 65 -18 54 -3
63 0 77 20 19 27 21 72 4 86 -7 5 -35 16 -63 24 -38 10 -51 19 -53 35 -4 28
30 47 74 40 25 -4 34 -2 34 9 0 8 -6 14 -12 14 -7 0 -22 2 -33 4 -11 2 -30 2
-42 -1z"/>
<path d="M1015 853 c-70 -175 -67 -163 -47 -163 10 0 22 12 29 30 10 28 15 30
63 30 48 0 52 -2 61 -30 6 -16 17 -30 25 -30 19 0 19 -1 -28 122 -51 132 -64
137 -103 41z"/>
<path d="M1450 805 l0 -115 80 0 c64 0 80 3 80 15 0 12 -14 15 -65 15 l-65 0
0 34 c0 35 0 35 52 38 74 4 77 28 4 28 l-56 0 0 35 0 35 60 0 c47 0 60 3 60
15 0 12 -15 15 -75 15 l-75 0 0 -115z"/>
<path d="M2170 805 c0 -94 3 -115 15 -115 11 0 15 19 17 87 l3 86 60 -86 c85
-122 95 -118 95 28 0 94 -3 115 -15 115 -11 0 -15 -19 -17 -87 l-3 -88 -60 87
c-84 123 -95 120 -95 -27z"/>
<path d="M2456 818 c-22 -57 -41 -109 -44 -115 -9 -28 26 -11 38 17 11 28 16
30 61 30 44 0 50 -3 64 -30 9 -16 22 -30 30 -30 14 0 9 18 -53 175 -32 83 -50
74 -96 -47z"/>
<path d="M2670 805 c0 -94 3 -115 15 -115 11 0 15 19 17 87 l3 86 60 -86 c85
-122 95 -118 95 28 0 94 -3 115 -15 115 -11 0 -15 -19 -17 -87 l-3 -88 -60 87
c-84 123 -95 120 -95 -27z"/>
<path d="M3140 805 l0 -115 75 0 c60 0 75 3 75 15 0 12 -13 15 -60 15 l-60 0
0 35 0 35 50 0 c38 0 50 4 50 15 0 11 -12 15 -50 15 l-50 0 0 35 0 34 57 3
c34 2 58 8 61 16 3 9 -16 12 -72 12 l-76 0 0 -115z"/>
<path d="M257 682 l-57 -57 158 -158 c86 -86 161 -157 165 -157 17 0 47 68 47
108 0 62 -28 106 -127 202 -139 135 -120 129 -186 62z"/>
<path d="M1585 501 c-39 -8 -62 -52 -46 -87 12 -26 13 -27 79 -44 39 -10 43
-14 40 -38 -3 -26 -6 -27 -66 -30 -82 -4 -80 -26 2 -30 70 -4 96 14 96 64 0
37 -23 57 -77 69 -38 8 -56 26 -47 49 8 20 45 30 79 22 18 -5 25 -2 25 9 0 8
-6 15 -14 15 -8 0 -20 2 -28 4 -7 2 -26 1 -43 -3z"/>
<path d="M840 385 c0 -94 3 -115 15 -115 11 0 15 19 17 87 l3 86 60 -86 c85
-122 95 -118 95 28 0 94 -3 115 -15 115 -11 0 -15 -19 -17 -87 l-3 -88 -60 87
c-84 123 -95 120 -95 -27z"/>
<path d="M1330 385 l0 -115 80 0 c64 0 80 3 80 15 0 12 -14 15 -65 15 l-65 0
0 34 c0 35 0 35 52 38 74 4 77 28 4 28 l-56 0 0 35 0 35 60 0 c47 0 60 3 60
15 0 12 -15 15 -75 15 l-75 0 0 -115z"/>
<path d="M1960 385 c0 -96 3 -115 15 -115 12 0 15 17 16 88 l0 87 32 -62 c18
-37 38 -63 47 -63 9 0 29 26 47 63 l32 62 0 -87 c1 -71 4 -88 16 -88 12 0 15
19 15 115 0 109 -1 115 -20 115 -16 0 -28 -17 -54 -72 l-33 -73 -37 73 c-27
53 -41 72 -56 72 -19 0 -20 -7 -20 -115z"/>
<path d="M2250 385 l0 -115 80 0 c64 0 80 3 80 15 0 12 -14 15 -65 15 l-65 0
0 34 c0 35 0 35 52 38 74 4 77 28 4 28 l-56 0 0 35 0 35 60 0 c47 0 60 3 60
15 0 12 -15 15 -75 15 l-75 0 0 -115z"/>
<path d="M2460 385 c0 -94 3 -115 15 -115 11 0 15 19 17 88 l3 87 61 -85 c86
-121 94 -119 94 24 0 95 -3 116 -15 116 -11 0 -15 -19 -17 -87 l-3 -86 -59 86
c-38 56 -66 87 -78 87 -16 0 -18 -10 -18 -115z"/>
</g>
</svg>
